<?xml version="1.0" encoding="UTF-8"?>
<svg width="256px" height="256px" viewBox="0 0 256 256" version="1.1" xmlns="http://www.w3.org/2000/svg" xmlns:xlink="http://www.w3.org/1999/xlink" preserveAspectRatio="xMidYMid">
    <g>
        <path d="M128,0 C57.307,0 0,57.307 0,128 C0,198.693 57.307,256 128,256 C198.693,256 256,198.693 256,128 C256,57.307 198.693,0 128,0 Z" fill="#880000"></path>
        <path d="M128,0 C57.307,0 0,57.307 0,128 C0,198.693 57.307,256 128,256 C198.693,256 256,198.693 256,128 C256,57.307 198.693,0 128,0 Z" fill="#880000" opacity="0.1"></path>
        <path d="M64,64 L128,192 L192,64 L128,128 Z" fill="#FFFFFF"></path>
        <path d="M96,96 L128,160 L160,96 L128,128 Z" fill="#880000"></path>
    </g>
</svg> 