<?xml version="1.0" encoding="UTF-8"?>
<svg width="256px" height="256px" viewBox="0 0 256 256" version="1.1" xmlns="http://www.w3.org/2000/svg" xmlns:xlink="http://www.w3.org/1999/xlink" preserveAspectRatio="xMidYMid">
    <g>
        <path d="M128,0 C57.307,0 0,57.307 0,128 C0,198.693 57.307,256 128,256 C198.693,256 256,198.693 256,128 C256,57.307 198.693,0 128,0 Z" fill="#339933"></path>
        <path d="M128,0 C57.307,0 0,57.307 0,128 C0,198.693 57.307,256 128,256 C198.693,256 256,198.693 256,128 C256,57.307 198.693,0 128,0 Z" fill="#339933" opacity="0.1"></path>
        <path d="M128,40 C83.817,40 48,75.817 48,120 C48,164.183 83.817,200 128,200 C172.183,200 208,164.183 208,120 C208,75.817 172.183,40 128,40 Z" fill="#FFFFFF"></path>
        <path d="M128,80 C106.954,80 90,96.954 90,118 C90,139.046 106.954,156 128,156 C149.046,156 166,139.046 166,118 C166,96.954 149.046,80 128,80 Z" fill="#339933"></path>
    </g>
</svg> 